<svg width="24" height="24" viewBox="0 0 24 24" fill="none" xmlns="http://www.w3.org/2000/svg">
<path d="M10.55 2.533C10.9558 2.19102 11.4693 2.00346 12 2.00346C12.5307 2.00346 13.0442 2.19102 13.45 2.533L20.2 8.227C20.708 8.655 21 9.284 21 9.947V12.766C20.4287 12.2548 19.6834 11.9817 18.9171 12.0028C18.1508 12.0239 17.4216 12.3376 16.8793 12.8794C16.3369 13.4212 16.0226 14.1501 16.0008 14.9164C15.979 15.6826 16.2514 16.4282 16.762 17H16.248C15.542 17 14.912 17.325 14.5 17.833V14.75C14.5 14.5511 14.421 14.3603 14.2803 14.2197C14.1397 14.079 13.9489 14 13.75 14H10.25C10.0511 14 9.86032 14.079 9.71967 14.2197C9.57902 14.3603 9.5 14.5511 9.5 14.75V19.75C9.5 20.2141 9.31563 20.6592 8.98744 20.9874C8.65925 21.3156 8.21413 21.5 7.75 21.5H4.75C4.52019 21.5 4.29262 21.4547 4.0803 21.3668C3.86798 21.2788 3.67507 21.1499 3.51256 20.9874C3.35006 20.8249 3.22116 20.632 3.13321 20.4197C3.04527 20.2074 3 19.9798 3 19.75V9.947C3 9.284 3.292 8.655 3.8 8.227L10.55 2.533ZM17 15C17 14.4696 17.2107 13.9609 17.5858 13.5858C17.9609 13.2107 18.4696 13 19 13C19.5304 13 20.0391 13.2107 20.4142 13.5858C20.7893 13.9609 21 14.4696 21 15C21 15.5304 20.7893 16.0391 20.4142 16.4142C20.0391 16.7893 19.5304 17 19 17C18.4696 17 17.9609 16.7893 17.5858 16.4142C17.2107 16.0391 17 15.5304 17 15ZM16.25 18C15.56 18 15 18.56 15 19.25V19.253L15.001 19.551L15.009 19.657C15.0641 20.1531 15.2425 20.6275 15.528 21.037C16.074 21.817 17.114 22.5 19 22.5C20.886 22.5 21.926 21.817 22.472 21.037C22.7575 20.6275 22.9359 20.1531 22.991 19.657L22.999 19.551C23.002 19.481 23.001 19.409 23.001 19.338L23 19.25C23 18.56 22.44 18 21.75 18H16.25Z" fill="black"/>
</svg>
